# xmcd
#
# Track frame offsets: 
#        150
#        17670
#        35562
#        49102
#        61515
#        86980
#        101330
#        117680
#        136892
#        163582
#        179447
#
# Disc length: 2577 seconds
#
# Revision: 5
# Processed by: cddbd v1.5.2PL0 Copyright (c) Steve Scherf et al.
# Submitted via: ExactAudioCopy v1.0b3
#
DISCID=8f0a0f0b
DTITLE=Roger Clyne and The Peacemakers - Honky Tonk Union
DYEAR=1999
DGENRE=Rock
TTITLE0=Beautiful Disaster
TTITLE1=City Girls
TTITLE2=Easy
TTITLE3=Honky Tonk Union
TTITLE4=Jack vs. Jose
TTITLE5=West Texas Moon
TTITLE6=Tell Yer Momma
TTITLE7=My Heart is a UFO
TTITLE8=Green and Dumb
TTITLE9=Never Thought
TTITLE10=Tow Chain
EXTD=YEAR: 1999
EXTT0=
EXTT1=
EXTT2=
EXTT3=
EXTT4=
EXTT5=
EXTT6=
EXTT7=
EXTT8=
EXTT9=
EXTT10=
PLAYORDER=
